<?xml version="1.0" encoding="iso-8859-1"?>
<!-- Generator: Adobe Illustrator 19.0.0, SVG Export Plug-In . SVG Version: 6.00 Build 0)  -->
<svg version="1.1" id="Layer_1" xmlns="http://www.w3.org/2000/svg" xmlns:xlink="http://www.w3.org/1999/xlink" x="0px" y="0px"
	 viewBox="0 0 511.998 511.998" style="enable-background:new 0 0 511.998 511.998;" xml:space="preserve">
<path style="fill:#F26464;" d="M288.796,298.873L288.796,298.873c80.524-13.201,155.45-49.599,215.601-104.737l0,0L389.191,82.531
	c-28.821-27.92-72.653-33.364-107.429-13.342L256,84.022l-25.762-14.833C195.462,49.167,151.63,54.61,122.809,82.531L7.604,194.136
	l0,0c60.15,55.138,135.077,91.537,215.601,104.737l0,0C244.923,302.434,267.077,302.434,288.796,298.873z"/>
<path style="fill:#DD5757;" d="M270.405,298.873L270.405,298.873c-80.524-13.201-171.182-49.599-231.333-104.737l0,0
	c0,0,112.066-130.159,169.916-133.776c-30.088-8.193-62.992-0.293-86.18,22.171L7.604,194.136l0,0
	c60.15,55.138,135.077,91.537,215.601,104.737l0,0c18.662,3.059,37.644,3.482,56.396,1.284
	C276.529,299.798,273.462,299.375,270.405,298.873z"/>
<path style="fill:#3C4A5E;" d="M149.01,181.569c70.04-19.161,143.94-19.161,213.98,0C292.949,200.729,219.05,200.729,149.01,181.569
	z"/>
<g>
	<ellipse style="fill:#F78181;" cx="342.868" cy="103.525" rx="22.658" ry="15.106"/>
	<ellipse style="fill:#F78181;" cx="256" cy="217.494" rx="45.948" ry="6.068"/>
</g>
<path d="M347.053,409.567c-50.206,50.208-131.901,50.208-182.107,0c-2.971-2.97-7.784-2.97-10.754,0c-2.97,2.97-2.97,7.783,0,10.753
	c28.072,28.073,64.934,42.103,101.808,42.103c36.865,0,73.742-14.038,101.808-42.103c2.97-2.97,2.97-7.783,0-10.753
	C354.839,406.597,350.025,406.596,347.053,409.567z"/>
<path d="M186.157,377.601c-2.97,2.97-2.97,7.784,0,10.753c18.862,18.862,43.912,28.949,69.665,28.949
	c10.283,0,20.678-1.608,30.835-4.908c3.994-1.298,6.181-5.587,4.882-9.581c-1.297-3.995-5.592-6.178-9.581-4.883
	c-30.133,9.789-62.718,1.997-85.046-20.331C193.942,374.631,189.128,374.631,186.157,377.601z"/>
<path d="M309.545,399.917c1.549,0,3.114-0.472,4.463-1.453c4.177-3.035,8.159-6.436,11.833-10.11c2.97-2.97,2.97-7.784-0.001-10.754
	c-2.969-2.97-7.783-2.969-10.753,0c-3.112,3.113-6.483,5.993-10.017,8.56c-3.397,2.468-4.151,7.224-1.683,10.621
	C304.876,398.83,307.194,399.917,309.545,399.917z"/>
<path d="M293.876,356.388c2.97-2.97,2.97-7.784,0-10.753c-2.971-2.97-7.784-2.97-10.754,0c-7.245,7.245-16.877,11.235-27.122,11.235
	c-10.245,0-19.877-3.99-27.122-11.235c-2.97-2.969-7.783-2.971-10.754,0c-2.97,2.97-2.97,7.783,0,10.753
	c10.117,10.117,23.568,15.689,37.876,15.689C270.308,372.076,283.76,366.505,293.876,356.388z"/>
<path d="M369.847,268.934c-26.526,10.286-54.207,17.834-82.282,22.436c-20.946,3.434-42.185,3.433-63.132,0
	c-76.617-12.56-147.558-46.195-205.688-97.441l35.232-34.131c3.016-2.922,3.092-7.737,0.17-10.753l0,0
	c-2.922-3.016-7.736-3.092-10.752-0.17l-41.083,39.8c-1.504,1.458-2.341,3.471-2.312,5.566s0.921,4.085,2.465,5.5
	c61.403,56.287,137.309,93.161,219.51,106.636c11.289,1.85,22.657,2.776,34.025,2.776c11.368,0,22.738-0.926,34.026-2.776
	c29.206-4.787,58.002-12.65,85.588-23.369c4.221-1.639,6.147-6.634,3.913-10.749C377.68,268.855,373.458,267.534,369.847,268.934z"
	/>
<path d="M509.687,188.675L394.483,77.069c-15.338-14.858-34.645-24.102-55.835-26.734c-21.19-2.633-42.174,1.609-60.679,12.264
	L256,75.248l-21.968-12.649c-18.505-10.655-39.487-14.896-60.679-12.264c-21.191,2.632-40.498,11.876-55.835,26.734l-49.839,48.282
	c-3.016,2.922-3.092,7.736-0.17,10.752c2.921,3.015,7.735,3.093,10.752,0.17l49.84-48.282c26.241-25.421,66.68-30.444,98.344-12.213
	l25.762,14.833c2.348,1.351,5.24,1.351,7.588,0l25.762-14.833c31.663-18.23,72.103-13.208,98.344,12.213l109.353,105.936
	c-29.178,25.716-61.778,47.123-97.01,63.695c-3.8,1.787-5.431,6.317-3.645,10.117c1.296,2.755,4.032,4.37,6.886,4.37
	c1.084,0,2.186-0.233,3.232-0.725c39.059-18.372,74.998-42.477,106.817-71.645c1.543-1.415,2.435-3.406,2.465-5.5
	S511.192,190.132,509.687,188.675z"/>
<path d="M256,203.534c36.671,0,73.343-4.877,108.996-14.63c3.305-0.904,5.598-3.907,5.598-7.334s-2.292-6.43-5.598-7.334
	c-71.306-19.507-146.686-19.507-217.994,0c-3.305,0.904-5.598,3.907-5.598,7.334s2.292,6.43,5.598,7.334
	C182.656,198.657,219.328,203.534,256,203.534z M329.051,181.569c-48.268,9.01-97.834,9.011-146.104,0
	C231.217,172.558,280.783,172.559,329.051,181.569z"/>
<g>
</g>
<g>
</g>
<g>
</g>
<g>
</g>
<g>
</g>
<g>
</g>
<g>
</g>
<g>
</g>
<g>
</g>
<g>
</g>
<g>
</g>
<g>
</g>
<g>
</g>
<g>
</g>
<g>
</g>
</svg>
